<svg xmlns="http://www.w3.org/2000/svg" width="20" height="30" viewBox="0 0 15 15">
  <path fill="#008AFC" fill-rule="evenodd" d="M14.6750731,94.3042541 C14.3604516,93.9975354 13.8904486,93.9140107 13.4894139,94.0935496 L0.632868889,99.8432823 C0.215687005,100.030439 -0.0367433413,100.461728 0.00436250486,100.917117 C0.045468351,101.372505 0.371050295,101.75162 0.815003277,101.861046 L5.93262245,103.121701 L7.53969058,108.250034 C7.67450493,108.680259 8.06423381,108.980051 8.51464525,108.999999 L8.56464292,108.999999 C8.99672682,109.00048 9.38681036,108.741364 9.55388264,108.342887 L14.9107764,95.486342 C15.0823283,95.0812885 14.9888605,94.612533 14.6750731,94.3042541 Z M8.56107166,107.928621 L6.7754404,102.214601 L1.06142039,100.811094 L13.9179654,95.0613618 L8.56107166,107.928621 Z" transform="translate(0 -94)"/>
</svg>
