<svg width="61" height="60" viewBox="0 0 61 60" fill="none" xmlns="http://www.w3.org/2000/svg">
<g clip-path="url(#clip0)">
<path d="M41.75 24.375C41.75 23.8777 41.9475 23.4008 42.2992 23.0492C42.6508 22.6975 43.1277 22.5 43.625 22.5H47.375C47.8723 22.5 48.3492 22.6975 48.7008 23.0492C49.0525 23.4008 49.25 23.8777 49.25 24.375V28.125C49.25 28.6223 49.0525 29.0992 48.7008 29.4508C48.3492 29.8025 47.8723 30 47.375 30H43.625C43.1277 30 42.6508 29.8025 42.2992 29.4508C41.9475 29.0992 41.75 28.6223 41.75 28.125V24.375ZM30.5 24.375C30.5 23.8777 30.6975 23.4008 31.0492 23.0492C31.4008 22.6975 31.8777 22.5 32.375 22.5H36.125C36.6223 22.5 37.0992 22.6975 37.4508 23.0492C37.8025 23.4008 38 23.8777 38 24.375V28.125C38 28.6223 37.8025 29.0992 37.4508 29.4508C37.0992 29.8025 36.6223 30 36.125 30H32.375C31.8777 30 31.4008 29.8025 31.0492 29.4508C30.6975 29.0992 30.5 28.6223 30.5 28.125V24.375ZM11.75 35.625C11.75 35.1277 11.9475 34.6508 12.2992 34.2992C12.6508 33.9475 13.1277 33.75 13.625 33.75H17.375C17.8723 33.75 18.3492 33.9475 18.7008 34.2992C19.0525 34.6508 19.25 35.1277 19.25 35.625V39.375C19.25 39.8723 19.0525 40.3492 18.7008 40.7008C18.3492 41.0525 17.8723 41.25 17.375 41.25H13.625C13.1277 41.25 12.6508 41.0525 12.2992 40.7008C11.9475 40.3492 11.75 39.8723 11.75 39.375V35.625ZM23 35.625C23 35.1277 23.1975 34.6508 23.5492 34.2992C23.9008 33.9475 24.3777 33.75 24.875 33.75H28.625C29.1223 33.75 29.5992 33.9475 29.9508 34.2992C30.3025 34.6508 30.5 35.1277 30.5 35.625V39.375C30.5 39.8723 30.3025 40.3492 29.9508 40.7008C29.5992 41.0525 29.1223 41.25 28.625 41.25H24.875C24.3777 41.25 23.9008 41.0525 23.5492 40.7008C23.1975 40.3492 23 39.8723 23 39.375V35.625Z" fill="white"/>
<path d="M13.625 0C14.1223 0 14.5992 0.197544 14.9508 0.549175C15.3025 0.900806 15.5 1.37772 15.5 1.875V3.75H45.5V1.875C45.5 1.37772 45.6975 0.900806 46.0492 0.549175C46.4008 0.197544 46.8777 0 47.375 0C47.8723 0 48.3492 0.197544 48.7008 0.549175C49.0525 0.900806 49.25 1.37772 49.25 1.875V3.75H53C54.9891 3.75 56.8968 4.54018 58.3033 5.9467C59.7098 7.35322 60.5 9.26088 60.5 11.25V52.5C60.5 54.4891 59.7098 56.3968 58.3033 57.8033C56.8968 59.2098 54.9891 60 53 60H8C6.01088 60 4.10322 59.2098 2.6967 57.8033C1.29018 56.3968 0.5 54.4891 0.5 52.5V11.25C0.5 9.26088 1.29018 7.35322 2.6967 5.9467C4.10322 4.54018 6.01088 3.75 8 3.75H11.75V1.875C11.75 1.37772 11.9475 0.900806 12.2992 0.549175C12.6508 0.197544 13.1277 0 13.625 0V0ZM4.25 15V52.5C4.25 53.4946 4.64509 54.4484 5.34835 55.1516C6.05161 55.8549 7.00544 56.25 8 56.25H53C53.9946 56.25 54.9484 55.8549 55.6516 55.1516C56.3549 54.4484 56.75 53.4946 56.75 52.5V15H4.25Z" fill="white"/>
</g>
<defs>
<clipPath id="clip0">
<rect width="60" height="60" fill="white" transform="translate(0.5)"/>
</clipPath>
</defs>
</svg>
