<svg width="60" height="46" viewBox="0 0 60 46" fill="none" xmlns="http://www.w3.org/2000/svg">
<path d="M59.9986 8.63783C60.0042 7.90032 59.8035 7.17594 59.4192 6.54646C59.0349 5.91698 58.4822 5.40745 57.8237 5.07541C57.1994 4.7402 56.493 4.5887 55.7862 4.63847C55.0794 4.68825 54.4011 4.93726 53.83 5.35666L44.999 11.0003V4.25043C44.999 3.25589 44.6039 2.30209 43.9006 1.59884C43.1974 0.895598 42.2436 0.500519 41.2491 0.500519H7.49983C5.51075 0.500519 3.60314 1.29068 2.19665 2.69717C0.790158 4.10366 0 6.01127 0 8.00035V37.9997C0 39.9887 0.790158 41.8963 2.19665 43.3028C3.60314 44.7093 5.51075 45.4995 7.49983 45.4995H41.2491C42.2436 45.4995 43.1974 45.1044 43.9006 44.4012C44.6039 43.6979 44.999 42.7441 44.999 41.7496V34.9997L53.6988 40.6246C54.2807 41.0702 54.977 41.342 55.707 41.4083C56.437 41.4747 57.1709 41.333 57.8237 40.9996C58.4939 40.662 59.0542 40.1407 59.4393 39.4967C59.8244 38.8526 60.0184 38.1123 59.9986 37.3622V8.63783ZM56.1175 37.5684C56.005 37.5684 55.9112 37.5684 55.7612 37.4559L41.2491 28.1936V41.7496H7.49983C6.50529 41.7496 5.55148 41.3545 4.84824 40.6512C4.14499 39.948 3.74991 38.9942 3.74991 37.9997V8.00035C3.74991 7.00581 4.14499 6.052 4.84824 5.34876C5.55148 4.64551 6.50529 4.25043 7.49983 4.25043H41.2491V17.8064L55.8737 8.43159C55.9091 8.40569 55.9518 8.39173 55.9956 8.39173C56.0394 8.39173 56.0821 8.40569 56.1175 8.43159C56.1585 8.44748 56.1933 8.47606 56.2169 8.51317C56.2406 8.55027 56.2517 8.59395 56.2487 8.63783V37.3622C56.2517 37.4061 56.2406 37.4497 56.2169 37.4868C56.1933 37.5239 56.1585 37.5525 56.1175 37.5684Z" fill="white"/>
</svg>
