<svg width="60" height="54" viewBox="0 0 60 54" fill="none" xmlns="http://www.w3.org/2000/svg">
<path d="M29.7678 4.55982C29.8414 4.51952 29.924 4.49885 30.0078 4.49982C30.0904 4.49949 30.1717 4.52014 30.2441 4.55982C30.3298 4.61124 30.3999 4.68516 30.4466 4.77357L56.1603 48.5248C56.2953 48.7498 56.2916 48.9898 56.1678 49.2111C56.1203 49.3019 56.0506 49.3792 55.9653 49.4361C55.8911 49.4816 55.8049 49.5038 55.7178 49.4998H4.29785C4.2108 49.5041 4.12451 49.4818 4.05035 49.4361C3.96505 49.3792 3.89541 49.3019 3.84785 49.2111C3.78605 49.107 3.75406 48.9879 3.75538 48.8669C3.75671 48.7459 3.79129 48.6275 3.85535 48.5248L29.5653 4.77357C29.6122 4.68528 29.6822 4.61139 29.7678 4.55982ZM33.6828 2.87232C33.3116 2.22568 32.7764 1.68844 32.1311 1.31484C31.4859 0.94124 30.7535 0.744507 30.0078 0.744507C29.2622 0.744507 28.5298 0.94124 27.8846 1.31484C27.2393 1.68844 26.7041 2.22568 26.3328 2.87232L0.619097 46.6236C-1.09465 49.5411 0.960346 53.2498 4.2941 53.2498H55.7178C59.0516 53.2498 61.1103 49.5373 59.3928 46.6236L33.6828 2.87232Z" fill="white"/>
<path d="M26.2568 41.9996C26.2568 41.5071 26.3538 41.0195 26.5423 40.5645C26.7307 40.1096 27.007 39.6962 27.3552 39.3479C27.7034 38.9997 28.1168 38.7235 28.5718 38.535C29.0267 38.3466 29.5144 38.2496 30.0068 38.2496C30.4993 38.2496 30.9869 38.3466 31.4419 38.535C31.8969 38.7235 32.3103 38.9997 32.6585 39.3479C33.0067 39.6962 33.2829 40.1096 33.4714 40.5645C33.6598 41.0195 33.7568 41.5071 33.7568 41.9996C33.7568 42.9941 33.3617 43.948 32.6585 44.6512C31.9552 45.3545 31.0014 45.7496 30.0068 45.7496C29.0123 45.7496 28.0584 45.3545 27.3552 44.6512C26.6519 43.948 26.2568 42.9941 26.2568 41.9996ZM26.6243 19.4808C26.5744 19.0077 26.6245 18.5294 26.7713 18.0769C26.9182 17.6245 27.1585 17.2079 27.4768 16.8543C27.795 16.5007 28.1841 16.2179 28.6186 16.0244C29.0532 15.8309 29.5236 15.7308 29.9993 15.7308C30.4751 15.7308 30.9455 15.8309 31.38 16.0244C31.8146 16.2179 32.2036 16.5007 32.5219 16.8543C32.8401 17.2079 33.0805 17.6245 33.2273 18.0769C33.3742 18.5294 33.4243 19.0077 33.3743 19.4808L32.0618 32.6321C32.0177 33.1487 31.7813 33.63 31.3994 33.9807C31.0175 34.3314 30.5179 34.526 29.9993 34.526C29.4808 34.526 28.9812 34.3314 28.5993 33.9807C28.2173 33.63 27.9809 33.1487 27.9368 32.6321L26.6243 19.4808Z" fill="white"/>
</svg>
