<svg width="57" height="57" viewBox="0 0 57 57" fill="none" xmlns="http://www.w3.org/2000/svg">
<path d="M25.8284 28.5C25.8284 29.2086 26.1099 29.8882 26.611 30.3893C27.1121 30.8904 27.7917 31.1719 28.5003 31.1719C29.2089 31.1719 29.8885 30.8904 30.3896 30.3893C30.8907 29.8882 31.1722 29.2086 31.1722 28.5C31.1722 27.7914 30.8907 27.1118 30.3896 26.6107C29.8885 26.1096 29.2089 25.8281 28.5003 25.8281C27.7917 25.8281 27.1121 26.1096 26.611 26.6107C26.1099 27.1118 25.8284 27.7914 25.8284 28.5ZM36.9613 28.5C36.9613 29.2086 37.2428 29.8882 37.7438 30.3893C38.2449 30.8904 38.9245 31.1719 39.6331 31.1719C40.3418 31.1719 41.0214 30.8904 41.5224 30.3893C42.0235 29.8882 42.305 29.2086 42.305 28.5C42.305 27.7914 42.0235 27.1118 41.5224 26.6107C41.0214 26.1096 40.3418 25.8281 39.6331 25.8281C38.9245 25.8281 38.2449 26.1096 37.7438 26.6107C37.2428 27.1118 36.9613 27.7914 36.9613 28.5ZM14.6956 28.5C14.6956 29.2086 14.9771 29.8882 15.4782 30.3893C15.9793 30.8904 16.6589 31.1719 17.3675 31.1719C18.0761 31.1719 18.7557 30.8904 19.2568 30.3893C19.7579 29.8882 20.0394 29.2086 20.0394 28.5C20.0394 27.7914 19.7579 27.1118 19.2568 26.6107C18.7557 26.1096 18.0761 25.8281 17.3675 25.8281C16.6589 25.8281 15.9793 26.1096 15.4782 26.6107C14.9771 27.1118 14.6956 27.7914 14.6956 28.5ZM51.5007 18.8367C50.2427 15.8476 48.4392 13.1646 46.1403 10.8601C43.8574 8.56891 41.1474 6.74772 38.1636 5.49961C35.1021 4.21377 31.8513 3.5625 28.5003 3.5625H28.389C25.0157 3.5792 21.7483 4.24717 18.6756 5.56084C15.7174 6.82175 13.0327 8.64617 10.7713 10.9324C8.49465 13.2313 6.70784 15.9032 5.47209 18.8813C4.19182 21.965 3.54612 25.2437 3.56282 28.6169C3.5817 32.4826 4.49626 36.2913 6.23469 39.7441V48.2051C6.23469 48.8842 6.50446 49.5355 6.98466 50.0157C7.46485 50.4959 8.11614 50.7656 8.79524 50.7656H17.2617C20.7146 52.5041 24.5233 53.4186 28.389 53.4375H28.5059C31.8402 53.4375 35.0742 52.7918 38.1191 51.5282C41.0878 50.295 43.7877 48.495 46.0679 46.229C48.3668 43.9523 50.1759 41.2916 51.4395 38.3247C52.7532 35.2521 53.4211 31.9846 53.4378 28.6113C53.4545 25.2214 52.7977 21.9316 51.5007 18.8367ZM43.0899 43.2176C39.1878 47.0807 34.0111 49.207 28.5003 49.207H28.4057C25.0491 49.1903 21.7149 48.3554 18.7702 46.7856L18.3027 46.5352H10.4652V38.6977L10.2147 38.2301C8.64495 35.2854 7.80998 31.9512 7.79328 28.5946C7.77102 23.0449 9.89182 17.8348 13.7827 13.9104C17.6681 9.98613 22.8615 7.81523 28.4113 7.79297H28.5059C31.2891 7.79297 33.9888 8.33291 36.5326 9.40166C39.0153 10.4426 41.2418 11.9399 43.1567 13.8548C45.0659 15.7641 46.5689 17.9962 47.6098 20.4788C48.6897 23.0505 49.2296 25.778 49.2185 28.5946C49.1851 34.1388 47.0086 39.3322 43.0899 43.2176Z" fill="white"/>
</svg>
