<svg xmlns="http://www.w3.org/2000/svg" width="46" height="28" fill="none" viewBox="0 0 46 34">
  <path fill="#000" d="M41.1454138,0.768517241 C40.1137448,0.802596103 39.1347379,1.23942241 38.4191207,1.98291724 C30.7390241,9.68157241 23.7308448,17.253331 16.3113621,24.8092276 L7.21525862,17.5474138 C6.39423793,16.890629 5.34401034,16.5870448 4.29996897,16.7016483 C3.25283448,16.8193766 2.29555862,17.3460448 1.63871034,18.1670655 C0.269337931,19.8803276 0.548193103,22.3742414 2.25832241,23.7435345 L14.1548741,33.2607759 C15.7348948,34.5216517 18.0057879,34.3915828 19.4339293,32.9633621 C27.9756534,24.4033966 35.6433776,15.9798448 44.0201362,7.58405172 C45.197419,6.44705862 45.553681,4.69977241 44.9185638,3.19097241 C44.2803614,1.68225172 42.7840052,0.718710345 41.1451362,0.76827931 L41.1454138,0.768517241 Z" transform="translate(0 -.588)"/>
</svg>
