<svg width="60" height="60" viewBox="0 0 60 60" fill="none" xmlns="http://www.w3.org/2000/svg">
<path d="M29.9956 6.25C25.4665 6.24941 21.0317 7.54342 17.2136 9.97954C13.3955 12.4157 10.3534 15.8924 8.44557 20H14.3756C14.8729 20 15.3498 20.1975 15.7014 20.5492C16.053 20.9008 16.2506 21.3777 16.2506 21.875C16.2506 22.3723 16.053 22.8492 15.7014 23.2008C15.3498 23.5525 14.8729 23.75 14.3756 23.75H5.00057C4.33753 23.75 3.70164 23.4866 3.2328 23.0178C2.76396 22.5489 2.50057 21.913 2.50057 21.25V11.875C2.50057 11.3777 2.69812 10.9008 3.04975 10.5492C3.40138 10.1975 3.87829 10 4.37557 10C4.87285 10 5.34977 10.1975 5.7014 10.5492C6.05303 10.9008 6.25057 11.3777 6.25057 11.875V16.1175C8.67431 11.9715 12.1418 8.5327 16.3078 6.14352C20.4739 3.75435 25.1931 2.49815 29.9956 2.5C45.1856 2.5 57.5006 14.8125 57.5006 30C57.5006 45.1875 45.1856 57.5 29.9956 57.5C15.0356 57.5 2.86557 45.5575 2.50057 30.6875C2.4883 30.1902 2.67408 29.7084 3.01704 29.3481C3.36 28.9878 3.83204 28.7785 4.32932 28.7663C4.8266 28.754 5.30839 28.9398 5.66869 29.2827C6.029 29.6257 6.2383 30.0977 6.25057 30.595C6.4058 36.7893 8.97571 42.6777 13.4119 47.0037C17.8481 51.3297 23.7993 53.7506 29.9956 53.75C43.1156 53.75 53.7506 43.1175 53.7506 30C53.7506 16.8825 43.1156 6.25 29.9956 6.25Z" fill="white"/>
<path d="M31.25 18.125C31.25 17.6277 31.0525 17.1508 30.7008 16.7992C30.3492 16.4475 29.8723 16.25 29.375 16.25C28.8777 16.25 28.4008 16.4475 28.0492 16.7992C27.6975 17.1508 27.5 17.6277 27.5 18.125V31.875C27.5 32.55 27.86 33.17 28.445 33.5025L37.195 38.5025C37.6257 38.7353 38.1304 38.7904 38.6012 38.656C39.072 38.5216 39.4715 38.2083 39.7144 37.7832C39.9573 37.3582 40.0243 36.8549 39.9011 36.3811C39.7779 35.9072 39.4742 35.5004 39.055 35.2475L31.25 30.7875V18.125Z" fill="white"/>
</svg>
