<svg xmlns="http://www.w3.org/2000/svg" fill="none" width="16" height="16" viewBox="0 0 12 12">
  <g fill="none" fill-rule="evenodd">
    <g fill="#FFF" transform="translate(.5 .5)">
      <path d="M9.38910156,1.61089844 C8.35026758,0.572107422 6.96910156,0 5.5,0 C4.03089844,0 2.64973242,0.572107422 1.61089844,1.61089844 C0.572107422,2.64973242 0,4.03089844 0,5.5 C0,6.96910156 0.572107422,8.35026758 1.61089844,9.38910156 C2.64973242,10.4278926 4.03089844,11 5.5,11 C6.50574805,11 7.48981836,10.7259238 8.3458418,10.207377 C8.54882617,10.0844219 8.61370898,9.82020703 8.49075391,9.61724414 C8.36782031,9.41423828 8.1035625,9.34937695 7.90062109,9.47233203 C7.17885352,9.90953906 6.34874023,10.140625 5.5,10.140625 C2.94114648,10.140625 0.859375,8.05885352 0.859375,5.5 C0.859375,2.94114648 2.94114648,0.859375 5.5,0.859375 C8.05885352,0.859375 10.140625,2.94114648 10.140625,5.5 C10.140625,6.41499805 9.86852539,7.30563281 9.3537168,8.0756543 C9.22182422,8.27292383 9.27482617,8.53978125 9.47211719,8.67167383 C9.6694082,8.80356641 9.93624414,8.75054297 10.0681367,8.55327344 C10.6777559,7.64143359 11,6.58562695 11,5.5 C11,4.03089844 10.4278926,2.64973242 9.38910156,1.61089844 Z"/>
      <path d="M5.5,1.6328125 C5.26268359,1.6328125 5.0703125,1.82518359 5.0703125,2.0625 L5.0703125,5.32202344 L3.49469141,6.89764453 C3.32687695,7.0654375 3.32687695,7.33749414 3.49469141,7.50530859 C3.57858789,7.58920508 3.68854492,7.63116406 3.79852344,7.63116406 C3.90850195,7.63116406 4.01845898,7.58920508 4.10235547,7.50530859 L5.80383203,5.80383203 C5.88441992,5.72326562 5.9296875,5.61395312 5.9296875,5.5 L5.9296875,2.0625 C5.9296875,1.82518359 5.73731641,1.6328125 5.5,1.6328125 Z"/>
    </g>
    <rect width="12" height="12"/>
  </g>
</svg>
