<svg xmlns="http://www.w3.org/2000/svg" width="46" height="28"  fill="none" viewBox="0 0 46 46">
  <path fill="#000" d="M44.8819327,6.54861998 C45.6281545,5.79741483 46.0024793,4.89402642 46,3.83334366 C46.0024831,2.7726609 45.6281353,1.8692725 44.8819327,1.11806735 C44.1307275,0.371845527 43.2273391,-0.00247927104 42.1666563,0 C41.1059736,-0.00248310437 40.2025852,0.371864694 39.45138,1.11806735 L23,17.5694474 L6.54861998,1.11806735 C5.79741483,0.371845527 4.89402642,-0.00247927104 3.83334366,0 C2.7726609,-0.00248310437 1.8692725,0.371864694 1.11806735,1.11806735 C0.371845527,1.8692725 -0.00247927104,2.7726609 0,3.83334366 C-0.00248310437,4.89402642 0.371864694,5.79741483 1.11806735,6.54861998 L17.5694474,23 L1.11806735,39.45138 C0.371845527,40.2025852 -0.00247927104,41.1059736 0,42.1666563 C-0.00248310437,43.2273391 0.371864694,44.1307275 1.11806735,44.8819327 C1.8692725,45.6281545 2.7726609,46.0024793 3.83334366,46 C4.89402642,46.0024831 5.79741483,45.6281353 6.54861998,44.8819327 L23,28.4305526 L39.45138,44.8819327 C40.2025852,45.6281545 41.1059736,46.0024793 42.1666563,46 C43.2273391,46.0024831 44.1307275,45.6281353 44.8819327,44.8819327 C45.6281545,44.1307275 46.0024793,43.2273391 46,42.1666563 C46.0024831,41.1059736 45.6281353,40.2025852 44.8819327,39.45138 L28.4305526,23 L44.8819327,6.54861998 Z"/>
</svg>
