<svg width="140" height="115" viewBox="0 0 140 115" fill="none" xmlns="http://www.w3.org/2000/svg">
<path fill-rule="evenodd" clip-rule="evenodd" d="M30.1525 81.2313V83.8163H30.1661C30.1661 124.789 109.848 124.789 109.848 83.8163V81.2313C116.891 86.3836 125.848 86.9697 140 81.7295C128.912 74.3052 124.221 64.8183 120.162 56.6085C115.546 47.2729 111.746 39.5887 100.285 38.466C99.3431 35.2011 98.6727 31.5552 98.5096 27.335C97.121 -9.11165 42.8797 -9.11165 41.4904 27.335C41.3275 31.5552 40.657 35.2011 39.7147 38.466C28.2533 39.5854 24.4535 47.2706 19.8371 56.6077C15.7777 64.818 11.0868 74.3056 0 81.7295C14.1516 86.9755 23.1096 86.3836 30.1525 81.2313ZM60.3766 23.2702C60.3766 21.418 58.8304 19.9174 56.9216 19.9174C55.0189 19.9174 53.4666 21.418 53.4666 23.2702C53.4666 25.1225 55.0129 26.6231 56.9216 26.6231C58.8304 26.6231 60.3766 25.1225 60.3766 23.2702ZM83.0633 19.9174C84.972 19.9174 86.5183 21.418 86.5183 23.2702C86.5183 25.1225 84.966 26.6231 83.0633 26.6231C81.1545 26.6231 79.6083 25.1225 79.6083 23.2702C79.6083 21.418 81.1545 19.9174 83.0633 19.9174ZM82.328 31.8948L74.3551 27.2174L74.3478 27.2232C75.1334 2.96233 91.1824 14.0288 92.3481 31.7952C92.8948 40.0774 95.3026 45.7593 97.4748 50.8851C99.4549 55.5578 101.239 59.7683 101.239 65.0652V79.8654C101.239 114.741 38.7354 114.741 38.7354 79.8654V65.0652C38.7354 59.8321 40.5322 55.6619 42.5159 51.0576C44.7426 45.8894 47.2049 40.1744 47.6266 31.7952C48.3997 16.4498 65.796 0.278012 65.6268 27.2232L57.6599 31.8948L69.994 46.9467L82.328 31.8948Z" fill="url(#paint0_linear_938_50654)"/>
<defs>
<linearGradient id="paint0_linear_938_50654" x1="140" y1="114.545" x2="1.49499" y2="-9.49879" gradientUnits="userSpaceOnUse">
<stop stop-color="#0253E2"/>
<stop offset="1" stop-color="#00C0E2"/>
</linearGradient>
</defs>
</svg>
