<svg xmlns="http://www.w3.org/2000/svg" width="19" height="16" viewBox="0 0 19 16">
  <defs>
    <linearGradient id="kiira_logo-a" x1="50%" x2="50%" y1="0%" y2="100%">
      <stop offset="0%" stop-color="#FFC2C2"/>
      <stop offset="100%" stop-color="#0089FF"/>
    </linearGradient>
  </defs>
  <path fill="url(#kiira_logo-a)" d="M4.09212302,11.7076704 L4.09212302,11.3465939 C3.13630801,12.0662737 1.92056974,12.1489606 0,11.4161871 C3.21577914,9.19988519 2.46660585,5.66688111 5.38985065,5.37302304 C5.51773055,4.9169771 5.60872677,4.40771393 5.63084522,3.81821619 C5.81938507,-1.27273873 13.1807073,-1.27273873 13.3691548,3.81821619 C13.3912879,4.40771393 13.4822778,4.9169771 13.6101493,5.37302304 C16.5333942,5.66776143 15.784011,9.19988519 19,11.4161871 C17.0793673,12.1481494 15.8637549,12.06628 14.907877,11.3465939 L14.907877,11.7076704 C14.907877,17.4307765 4.09396972,17.4307765 4.09396972,11.7076704 L4.09212302,11.7076704 Z M7.72508886,2.78251738 C7.98413074,2.78251738 8.1939832,2.99211658 8.1939832,3.25084583 C8.1939832,3.50957508 7.98413074,3.71917428 7.72508886,3.71917428 C7.46604698,3.71917428 7.25619451,3.50957508 7.25619451,3.25084583 C7.25619451,2.99211658 7.4668654,2.78251738 7.72508886,2.78251738 Z M11.2728546,2.78251738 C11.5318965,2.78251738 11.7417489,2.99211658 11.7417489,3.25084583 C11.7417489,3.50957508 11.531078,3.71917428 11.2728546,3.71917428 C11.0138127,3.71917428 10.8039602,3.50957508 10.8039602,3.25084583 C10.8039602,2.99211658 11.0138127,2.78251738 11.2728546,2.78251738 Z M10.0907976,3.80186116 L11.1728389,4.45522378 L9.49892975,6.55771334 L7.8250206,4.45522378 L8.90624344,3.8026786 C8.9291971,0.0389058031 6.56827716,2.29781924 6.46335092,4.4413064 C6.3551468,6.65446433 5.25669926,7.53708655 5.25669926,9.08853981 L5.25669926,11.1558796 C5.25669926,16.0273841 13.7393555,16.0273841 13.7393555,11.1558796 L13.7393555,9.08853981 C13.7393555,7.53702367 12.6745221,6.65278753 12.5327038,4.4413064 C12.374494,1.95965189 10.1964164,0.413857808 10.0898113,3.8026786 L10.0907976,3.80186116 Z"/>
</svg>
