<svg width="168" height="40" viewBox="0 0 168 41" fill="none" xmlns="http://www.w3.org/2000/svg">
<path fill-rule="evenodd" clip-rule="evenodd" d="M10.5294 28.3665V29.2692H10.5342C10.5342 43.5769 38.3594 43.5769 38.3594 29.2692V28.3665C40.819 30.1657 43.9469 30.3704 48.8889 28.5405C45.0168 25.9478 43.3788 22.635 41.9612 19.768C40.3493 16.508 39.0225 13.8246 35.0203 13.4326C34.6912 12.2924 34.4571 11.0193 34.4002 9.54554C33.9153 -3.18185 14.9739 -3.18185 14.4887 9.54554C14.4318 11.0193 14.1977 12.2924 13.8686 13.4326C9.86622 13.8235 8.53933 16.5072 6.92723 19.7678C5.50967 22.6349 3.87159 25.948 0 28.5405C4.94182 30.3724 8.07003 30.1657 10.5294 28.3665ZM21.0839 8.12712C21.0839 7.4803 20.5439 6.9563 19.8774 6.9563C19.213 6.9563 18.6709 7.4803 18.6709 8.12712C18.6709 8.77394 19.2109 9.29794 19.8774 9.29794C20.5439 9.29794 21.0839 8.77394 21.0839 8.12712ZM29.006 6.9563C29.6725 6.9563 30.2125 7.4803 30.2125 8.12712C30.2125 8.77394 29.6704 9.29794 29.006 9.29794C28.3394 9.29794 27.7995 8.77394 27.7995 8.12712C27.7995 7.4803 28.3394 6.9563 29.006 6.9563ZM28.7489 11.1381L25.9647 9.50464L25.9621 9.50669C26.2364 1.03463 31.8408 4.89912 32.2479 11.1033C32.4388 13.9955 33.2796 15.9796 34.0382 17.7696C34.7297 19.4013 35.3528 20.8716 35.3528 22.7213V27.8897C35.3528 40.0685 13.526 40.0685 13.526 27.8897V22.7213C13.526 20.8939 14.1535 19.4377 14.8462 17.8298C15.6238 16.0251 16.4836 14.0293 16.6309 11.1033C16.9009 5.74454 22.9757 0.097255 22.9167 9.50669L20.1346 11.1381L24.4417 16.3943L28.7489 11.1381Z" fill="url(#paint0_linear)"/>
<path fill-rule="evenodd" clip-rule="evenodd" d="M84.2574 40.2556C85.4258 40.2556 86.3507 39.9369 87.0323 39.2996C87.7138 38.6623 88.0546 37.91 88.0546 37.0426C88.0546 36.2637 87.8599 35.4626 87.4704 34.6395C87.081 33.8163 86.4968 32.8559 85.7179 31.7584L74.6715 15.9323L84.2574 6.85088C85.4435 5.71792 86.0365 4.57611 86.0365 3.42544C86.0365 2.4695 85.6869 1.65961 84.9876 0.995768C84.2884 0.331923 83.3723 0 82.2393 0C81.3719 0 80.6771 0.185877 80.1548 0.55763C79.6326 0.929383 78.9998 1.50472 78.2563 2.28363L62.7754 18.4283V4.77969C62.7754 3.16875 62.4081 1.96941 61.6734 1.18164C60.9388 0.393882 59.9784 0 58.7923 0C57.5886 0 56.637 0.398307 55.9378 1.19492C55.2385 1.99154 54.8889 3.18646 54.8889 4.77969V33.7233C54.8889 34.9625 54.9155 35.9096 54.9686 36.5646C55.0217 37.2196 55.1722 37.7949 55.42 38.2906C55.7563 38.8925 56.2343 39.3705 56.8539 39.7245C57.4735 40.0786 58.1196 40.2556 58.7923 40.2556C59.9607 40.2556 60.9166 39.8617 61.6601 39.0739C62.4036 38.2862 62.7754 37.078 62.7754 35.4493V27.4035L69.228 21.2165L78.5483 35.5556C78.9201 36.1928 79.345 36.9009 79.8229 37.6799C80.3009 38.4588 80.8851 39.0828 81.5755 39.5519C82.2659 40.021 83.1599 40.2556 84.2574 40.2556ZM96.8603 40.2556C97.9224 40.2556 98.7987 39.8839 99.4891 39.1404C100.18 38.3969 100.525 37.2993 100.525 35.8477V14.8967C100.525 13.6044 100.18 12.5954 99.4891 11.8696C98.7987 11.1438 97.9224 10.7809 96.8603 10.7809C95.7981 10.7809 94.9351 11.1438 94.2713 11.8696C93.6075 12.5954 93.2755 13.6753 93.2755 15.1092V35.8477C93.2755 37.2639 93.6075 38.3526 94.2713 39.1138C94.9351 39.875 95.7981 40.2556 96.8603 40.2556ZM112.888 6.46588C112.18 7.09432 111.339 7.40854 110.366 7.40854C109.357 7.40854 108.494 7.09875 107.777 6.47916C107.06 5.85957 106.701 4.98329 106.701 3.85033C106.701 2.82358 107.069 1.97829 107.803 1.31444C108.538 0.650598 109.392 0.318675 110.366 0.318675C111.304 0.318675 112.136 0.619619 112.862 1.2215C113.588 1.82339 113.95 2.69967 113.95 3.85033C113.95 4.96559 113.596 5.83744 112.888 6.46588ZM110.286 40.2556C111.348 40.2556 112.224 39.8839 112.915 39.1404C113.605 38.3969 113.95 37.2993 113.95 35.8477V14.8967C113.95 13.6044 113.605 12.5954 112.915 11.8696C112.224 11.1438 111.348 10.7809 110.286 10.7809C109.224 10.7809 108.361 11.1438 107.697 11.8696C107.033 12.5954 106.701 13.6753 106.701 15.1092V35.8477C106.701 37.2639 107.033 38.3526 107.697 39.1138C108.361 39.875 109.224 40.2556 110.286 40.2556ZM126.288 39.1536C125.597 39.8883 124.721 40.2556 123.659 40.2556C122.614 40.2556 121.756 39.8839 121.083 39.1404C120.41 38.3969 120.074 37.2993 120.074 35.8477V15.6668C120.074 12.4095 121.251 10.7809 123.606 10.7809C124.81 10.7809 125.677 11.1615 126.208 11.9227C126.739 12.6839 127.031 13.808 127.084 15.295C127.952 13.808 128.841 12.6839 129.753 11.9227C130.665 11.1615 131.882 10.7809 133.404 10.7809C134.927 10.7809 136.405 11.1615 137.839 11.9227C139.273 12.6839 139.989 13.693 139.989 14.9498C139.989 15.835 139.684 16.5652 139.073 17.1405C138.463 17.7159 137.803 18.0035 137.095 18.0035C136.83 18.0035 136.188 17.8398 135.17 17.5123C134.152 17.1848 133.254 17.021 132.475 17.021C131.413 17.021 130.545 17.2999 129.872 17.8575C129.2 18.4151 128.678 19.2427 128.306 20.3403C127.934 21.4378 127.677 22.7434 127.536 24.257C127.394 25.7705 127.323 27.616 127.323 29.7934V35.8477C127.323 37.317 126.978 38.419 126.288 39.1536ZM164.116 40.2555C165.001 40.2555 165.793 39.9501 166.492 39.3394C167.191 38.7287 167.541 38.0516 167.541 37.308C167.541 36.8832 167.315 35.9317 166.864 34.4535C166.413 32.9753 166.187 31.5547 166.187 30.1916C166.205 28.74 166.218 27.4212 166.227 26.2351C166.236 25.049 166.24 23.6063 166.24 21.9068C166.24 19.216 165.864 17.0563 165.111 15.4277C164.359 13.7991 163.071 12.6086 161.248 11.8562C159.424 11.1039 156.92 10.7277 153.733 10.7277C150.883 10.7277 148.502 11.1171 146.59 11.896C144.678 12.675 143.271 13.6663 142.368 14.8701C141.465 16.0738 141.014 17.313 141.014 18.5876C141.014 19.4019 141.31 20.0702 141.903 20.5924C142.496 21.1146 143.2 21.3758 144.014 21.3758C144.917 21.3758 145.506 21.212 145.78 20.8845C146.055 20.557 146.524 19.8799 147.188 18.8531C147.851 17.8264 148.648 17.0563 149.577 16.543C150.507 16.0296 151.892 15.7729 153.733 15.7729C155.875 15.7729 157.287 16.2199 157.968 17.1139C158.65 18.0079 159.035 19.4108 159.124 21.3227C157.601 21.7652 156.189 22.1414 154.888 22.4512C153.587 22.761 152.025 23.1018 150.201 23.4735C148.378 23.8453 147.236 24.0842 146.776 24.1905C144.581 24.6684 142.855 25.6067 141.598 27.0052C140.341 28.4037 139.713 30.0943 139.713 32.0769C139.713 33.5463 140.093 34.9093 140.855 36.1662C141.616 37.4231 142.7 38.4189 144.107 39.1535C145.515 39.8882 147.148 40.2555 149.007 40.2555C151.042 40.2555 152.879 39.9147 154.516 39.2332C156.154 38.5516 157.849 37.5293 159.602 36.1662C160.416 37.4939 161.186 38.5074 161.912 39.2066C162.637 39.9059 163.372 40.2555 164.116 40.2555ZM148.237 34.3474C149.069 35.1174 150.158 35.5024 151.503 35.5024C152.937 35.5024 154.26 35.1882 155.473 34.5598C156.685 33.9313 157.575 33.1215 158.141 32.1301C158.796 31.0326 159.124 29.2269 159.124 26.7131V25.6775C158.062 26.067 156.517 26.4786 154.49 26.9123C152.463 27.346 151.06 27.6646 150.281 27.8682C149.503 28.0718 148.759 28.4701 148.051 29.0631C147.343 29.6562 146.989 30.4838 146.989 31.5459C146.989 32.6435 147.405 33.5773 148.237 34.3474Z" fill="black"/>
<path d="M96.9393 7.40847C97.913 7.40847 98.7538 7.09425 99.4619 6.46581C100.17 5.83737 100.524 4.96552 100.524 3.85026C100.524 2.69959 100.161 1.82332 99.4354 1.22143C98.7096 0.619547 97.8776 0.318604 96.9393 0.318604C95.9657 0.318604 95.1115 0.650526 94.3769 1.31437C93.6422 1.97822 93.2749 2.82351 93.2749 3.85026C93.2749 4.98322 93.6334 5.8595 94.3503 6.47909C95.0673 7.09867 95.9303 7.40847 96.9393 7.40847Z" fill="#3F84FF"/>
<defs>
<linearGradient id="paint0_linear" x1="48.8889" y1="40" x2="0.522058" y2="-3.31703" gradientUnits="userSpaceOnUse">
<stop stop-color="#0253E2"/>
<stop offset="1" stop-color="#00C0E2"/>
</linearGradient>
</defs>
</svg>
