<svg width="40" height="40" viewBox="0 0 40 40" fill="none" xmlns="http://www.w3.org/2000/svg">
<circle cx="20" cy="20" r="20" fill="white"/>
<path d="M19.9997 36.6673C29.2044 36.6673 36.6663 29.2054 36.6663 20.0007C36.6663 10.7959 29.2044 3.33398 19.9997 3.33398C10.7949 3.33398 3.33301 10.7959 3.33301 20.0007C3.33301 29.2054 10.7949 36.6673 19.9997 36.6673Z" stroke="#0253E2" stroke-width="1.5" stroke-linecap="round" stroke-linejoin="round"/>
<path d="M16.6667 16.6665V17.4165H17.4167V16.6665H16.6667ZM11 16.6665L11 15.9165H11V16.6665ZM16.6667 23.3332H17.4167V22.5832H16.6667V23.3332ZM23.3333 23.3332V22.5832H22.5833V23.3332H23.3333ZM29 16.6665V17.4165V16.6665ZM23.3333 16.6665H22.5833V17.4165H23.3333V16.6665ZM17.4167 11C17.4167 10.8619 17.5286 10.75 17.6667 10.75V9.25C16.7002 9.25 15.9167 10.0335 15.9167 11H17.4167ZM17.4167 16.6665V11H15.9167V16.6665H17.4167ZM11 17.4165L16.6667 17.4165V15.9165L11 15.9165L11 17.4165ZM10.75 17.6665C10.75 17.5284 10.8619 17.4165 11 17.4165V15.9165C10.0335 15.9165 9.25 16.7 9.25 17.6665H10.75ZM10.75 22.3332V17.6665H9.25V22.3332H10.75ZM11 22.5832C10.8619 22.5832 10.75 22.4712 10.75 22.3332H9.25C9.25 23.2997 10.0335 24.0832 11 24.0832V22.5832ZM16.6667 22.5832H11V24.0832H16.6667V22.5832ZM17.4167 29V23.3332H15.9167V29H17.4167ZM17.6667 29.25C17.5286 29.25 17.4167 29.1381 17.4167 29H15.9167C15.9167 29.9665 16.7002 30.75 17.6667 30.75V29.25ZM22.3333 29.25H17.6667V30.75H22.3333V29.25ZM22.5833 29C22.5833 29.1381 22.4714 29.25 22.3333 29.25V30.75C23.2998 30.75 24.0833 29.9665 24.0833 29H22.5833ZM22.5833 23.3332V29H24.0833V23.3332H22.5833ZM29 22.5832H23.3333V24.0832H29V22.5832ZM29.25 22.3332C29.25 22.4712 29.1381 22.5832 29 22.5832V24.0832C29.9665 24.0832 30.75 23.2997 30.75 22.3332H29.25ZM29.25 17.6665V22.3332H30.75V17.6665H29.25ZM29 17.4165C29.1381 17.4165 29.25 17.5284 29.25 17.6665H30.75C30.75 16.7 29.9665 15.9165 29 15.9165V17.4165ZM23.3333 17.4165L29 17.4165V15.9165L23.3333 15.9165V17.4165ZM22.5833 11V16.6665H24.0833V11H22.5833ZM22.3333 10.75C22.4714 10.75 22.5833 10.8619 22.5833 11H24.0833C24.0833 10.0335 23.2998 9.25 22.3333 9.25V10.75ZM17.6667 10.75H22.3333V9.25H17.6667V10.75Z" fill="#0253E2"/>
</svg>
