<svg width="51" height="50" viewBox="0 0 51 50" fill="none" xmlns="http://www.w3.org/2000/svg">
<rect x="0.5" width="50" height="50" rx="25" fill="#9102E2"/>
<path d="M25.5002 30.625C22.3984 30.625 19.8752 28.1019 19.8752 25C19.8752 24.655 20.1546 24.375 20.5002 24.375C20.8459 24.375 21.1252 24.655 21.1252 25C21.1252 27.4119 23.0884 29.375 25.5002 29.375C25.8459 29.375 26.1252 29.6544 26.1252 30C26.1252 30.3456 25.8459 30.625 25.5002 30.625Z" fill="white"/>
<path d="M21.125 21.25C21.0437 21.25 20.9625 21.2313 20.8875 21.2C20.8063 21.1688 20.7438 21.125 20.6813 21.0688C20.5681 20.95 20.5 20.7875 20.5 20.625C20.5 20.5438 20.5125 20.4625 20.55 20.3875C20.5812 20.3063 20.625 20.2438 20.6813 20.1813C20.7438 20.125 20.8063 20.0813 20.8875 20.05C21 20 21.125 19.9875 21.2431 20.0125C21.2869 20.0188 21.3244 20.0313 21.3619 20.05C21.3994 20.0625 21.4369 20.0813 21.4681 20.1063C21.5056 20.125 21.5369 20.1563 21.5681 20.1813C21.6244 20.2438 21.6681 20.3063 21.6994 20.3875C21.7312 20.4625 21.75 20.5438 21.75 20.625C21.75 20.7875 21.6812 20.95 21.5687 21.0688C21.5375 21.0938 21.5056 21.125 21.4687 21.1438C21.4375 21.1688 21.4 21.1875 21.3625 21.2C21.3244 21.2188 21.2875 21.2313 21.2438 21.2375C21.2063 21.2438 21.1625 21.25 21.125 21.25Z" fill="white"/>
<path d="M25.5 35C18.6075 35 13 29.3925 13 22.5C13 15.6075 18.6075 10 25.5 10C25.8456 10 26.125 10.28 26.125 10.625V34.375C26.125 34.7206 25.8456 35 25.5 35ZM24.875 11.2669C18.9612 11.5925 14.25 16.5062 14.25 22.5C14.25 28.4937 18.9612 33.4075 24.875 33.7331V11.2669Z" fill="white"/>
<path d="M30.4998 35.625C30.1541 35.625 29.8748 35.3456 29.8748 35C29.8748 32.5881 27.9116 30.625 25.4998 30.625C25.1541 30.625 24.8748 30.3456 24.8748 30C24.8748 29.6544 25.1541 29.375 25.4998 29.375C28.6016 29.375 31.1248 31.8981 31.1248 35C31.1248 35.3456 30.8454 35.625 30.4998 35.625Z" fill="white"/>
<path d="M29.8752 26.25C29.7059 26.25 29.5496 26.1869 29.4315 26.0687C29.3752 26.0056 29.3315 25.9375 29.2934 25.8625C29.2627 25.7875 29.2502 25.7062 29.2502 25.625C29.2502 25.4625 29.3184 25.3 29.4315 25.1812C29.5815 25.0375 29.794 24.975 29.9934 25.0125C30.0371 25.0187 30.0746 25.0312 30.1121 25.05C30.1496 25.0625 30.1871 25.0812 30.2246 25.1062C30.2559 25.1312 30.2877 25.1562 30.3184 25.1812C30.4315 25.3 30.5002 25.4625 30.5002 25.625C30.5002 25.7062 30.4815 25.7875 30.4502 25.8625C30.419 25.9375 30.3752 26.0056 30.319 26.0687C30.2559 26.125 30.1877 26.1687 30.1127 26.2062C30.0377 26.2369 29.9565 26.25 29.8752 26.25Z" fill="white"/>
<path d="M25.4998 40C25.1541 40 24.8748 39.7206 24.8748 39.375V15.625C24.8748 15.28 25.1541 15 25.4998 15C32.3923 15 37.9998 20.6075 37.9998 27.5C37.9998 34.3925 32.3923 40 25.4998 40ZM26.1248 16.2669V38.7325C32.0385 38.4075 36.7498 33.4937 36.7498 27.5C36.7498 21.5062 32.0385 16.5925 26.1248 16.2669Z" fill="white"/>
</svg>
