<svg width="40" height="40" viewBox="0 0 40 40" fill="none" xmlns="http://www.w3.org/2000/svg">
<circle cx="20" cy="20" r="20" fill="white"/>
<path d="M19.9997 36.6673C29.2044 36.6673 36.6663 29.2054 36.6663 20.0007C36.6663 10.7959 29.2044 3.33398 19.9997 3.33398C10.7949 3.33398 3.33301 10.7959 3.33301 20.0007C3.33301 29.2054 10.7949 36.6673 19.9997 36.6673Z" stroke="#0253E2" stroke-width="1.5" stroke-linecap="round" stroke-linejoin="round"/>
<path d="M24.861 10.2793H15.1388C14.0649 10.2793 13.1943 11.1499 13.1943 12.2237V27.7793C13.1943 28.8532 14.0649 29.7237 15.1388 29.7237H24.861C25.9349 29.7237 26.8054 28.8532 26.8054 27.7793V12.2237C26.8054 11.1499 25.9349 10.2793 24.861 10.2793Z" stroke="#0253E2" stroke-width="1.5" stroke-linecap="round" stroke-linejoin="round"/>
<path d="M20 25.834H20.0085" stroke="#0253E2" stroke-linecap="round" stroke-linejoin="round"/>
</svg>
