<svg width="49" height="40" viewBox="0 0 49 40" fill="none" xmlns="http://www.w3.org/2000/svg">
<path fill-rule="evenodd" clip-rule="evenodd" d="M10.5294 28.3665V29.2692H10.5342C10.5342 43.5769 38.3594 43.5769 38.3594 29.2692V28.3665C40.819 30.1657 43.9469 30.3704 48.8889 28.5405C45.0168 25.9478 43.3788 22.635 41.9612 19.768C40.3493 16.508 39.0225 13.8246 35.0203 13.4326C34.6912 12.2924 34.4571 11.0193 34.4002 9.54554C33.9153 -3.18185 14.9739 -3.18185 14.4887 9.54554C14.4318 11.0193 14.1977 12.2924 13.8686 13.4326C9.86622 13.8235 8.53933 16.5072 6.92723 19.7678C5.50967 22.6349 3.87159 25.948 0 28.5405C4.94182 30.3724 8.07003 30.1657 10.5294 28.3665ZM21.0839 8.12712C21.0839 7.4803 20.5439 6.9563 19.8774 6.9563C19.213 6.9563 18.6709 7.4803 18.6709 8.12712C18.6709 8.77394 19.2109 9.29794 19.8774 9.29794C20.5439 9.29794 21.0839 8.77394 21.0839 8.12712ZM29.006 6.9563C29.6725 6.9563 30.2125 7.4803 30.2125 8.12712C30.2125 8.77394 29.6704 9.29794 29.006 9.29794C28.3394 9.29794 27.7995 8.77394 27.7995 8.12712C27.7995 7.4803 28.3394 6.9563 29.006 6.9563ZM28.7489 11.1381L25.9647 9.50464L25.9621 9.50669C26.2364 1.03463 31.8408 4.89912 32.2479 11.1033C32.4388 13.9955 33.2796 15.9796 34.0382 17.7696C34.7297 19.4013 35.3528 20.8716 35.3528 22.7213V27.8897C35.3528 40.0685 13.526 40.0685 13.526 27.8897V22.7213C13.526 20.8939 14.1535 19.4377 14.8462 17.8298C15.6238 16.0251 16.4836 14.0293 16.6309 11.1033C16.9009 5.74454 22.9757 0.097255 22.9167 9.50669L20.1346 11.1381L24.4417 16.3943L28.7489 11.1381Z" fill="url(#paint0_linear)"/>
<defs>
<linearGradient id="paint0_linear" x1="48.8889" y1="40" x2="0.522058" y2="-3.31703" gradientUnits="userSpaceOnUse">
<stop stop-color="#0253E2"/>
<stop offset="1" stop-color="#00C0E2"/>
</linearGradient>
</defs>
</svg>
