<svg xmlns="http://www.w3.org/2000/svg" width="22" height="30" viewBox="0 0 16 17">
  <path fill="none" stroke="#008AFC" stroke-linecap="round" stroke-linejoin="round" d="M13.9216867,11.2303775 L13.9216867,13.4884815 C13.9232867,13.9123615 13.7586202,14.3173248 13.4681412,14.6038831 C13.1776621,14.8904414 12.7882914,15.0320371 12.3956867,14.9938841 C10.2416704,14.7422114 8.17258607,13.9507488 6.35468666,12.6830911 C4.66336634,11.5274415 3.22942196,9.98553893 2.15468666,8.1668832 C0.971671299,6.20323902 0.23545676,3.96755851 0.0056866584,1.64096286 C-0.0296820944,1.22010673 0.101077064,0.802643599 0.366022704,0.490550026 C0.630968344,0.178456453 1.00570263,0.000471950631 1.39868666,0 L3.49868666,0 C4.2013915,-0.00736280242 4.80033725,0.546510679 4.89868666,1.29472026 C4.98732277,2.01736353 5.15170128,2.72690527 5.38868666,3.40981093 C5.58100116,3.95994152 5.45799721,4.58011564 5.07368666,4.99801069 L4.18468666,5.95394135 C5.18117549,7.83836358 6.63220458,9.39863714 8.38468666,10.4701492 L9.27368666,9.51421854 C9.66232227,9.10097418 10.2390741,8.96870956 10.7506867,9.17550295 C11.3857778,9.43033039 12.0456401,9.60708456 12.7176867,9.70239387 C13.4215805,9.80917232 13.9393197,10.4662296 13.9216867,11.2303775 Z" transform="translate(1 1)"/>
</svg>
