<svg xmlns="http://www.w3.org/2000/svg" width="24" height="24" viewBox="0 0 34 34">
  <path fill="#000" d="M18.41712,15.58288 L23.3818,15.58288 C24.160094,15.58288 24.792256,16.212424 24.792256,17 C24.792256,17.782272 24.161386,18.41712 23.3818,18.41712 L18.41712,18.41712 L18.41712,23.3818 C18.41712,24.160094 17.787576,24.792256 17,24.792256 C16.217728,24.792256 15.58288,24.161386 15.58288,23.3818 L15.58288,18.41712 L10.6182,18.41712 C9.839906,18.41712 9.207744,17.787576 9.207744,17 C9.207744,16.217728 9.838614,15.58288 10.6182,15.58288 L15.58288,15.58288 L15.58288,10.6182 C15.58288,9.839906 16.212424,9.207744 17,9.207744 C17.782272,9.207744 18.41712,9.838614 18.41712,10.6182 L18.41712,15.58288 Z M17,34 C7.61158,34 0,26.38842 0,17 C0,7.61158 7.61158,0 17,0 C26.38842,0 34,7.61158 34,17 C34,26.38842 26.38842,34 17,34 Z M17,31.16712 C24.82408,31.16712 31.16712,24.82408 31.16712,17 C31.16712,9.17592 24.82408,2.83288 17,2.83288 C9.17592,2.83288 2.83288,9.17592 2.83288,17 C2.83288,24.82408 9.17592,31.16712 17,31.16712 Z"/>
</svg>
