<svg width="50" height="50" viewBox="0 0 50 50" fill="none" xmlns="http://www.w3.org/2000/svg">
<rect width="50" height="50" rx="25" fill="#9102E2"/>
<g clip-path="url(#clip0)">
<path d="M38.848 23.746C39.376 22.648 39.652 21.436 39.652 20.182C39.652 17.98 38.8 15.916 37.252 14.356C35.704 12.802 33.646 11.944 31.45 11.944C29.254 11.944 27.202 12.802 25.648 14.356C25.348 14.656 25.072 14.98 24.82 15.322C24.568 14.98 24.292 14.656 23.992 14.356C22.444 12.802 20.386 11.944 18.19 11.944C15.994 11.944 13.954 12.808 12.4 14.362C10.852 15.916 10 17.986 10 20.188C10 22.39 10.852 24.454 12.4 26.014L24.088 37.75C24.286 37.948 24.55 38.056 24.826 38.056C25.108 38.056 25.366 37.948 25.564 37.75L28.486 34.816C29.584 35.398 30.832 35.734 32.152 35.734C36.478 35.734 40 32.2 40 27.856C40 26.35 39.58 24.946 38.848 23.746ZM24.826 37.006L13.138 25.27C11.788 23.914 11.038 22.108 11.038 20.182C11.038 18.256 11.782 16.456 13.138 15.094C14.488 13.738 16.288 12.988 18.202 12.988C20.116 12.988 21.916 13.738 23.266 15.094C23.698 15.532 24.076 16.018 24.382 16.54C24.478 16.702 24.646 16.798 24.832 16.798C25.018 16.798 25.186 16.702 25.282 16.54C25.588 16.018 25.96 15.532 26.398 15.094C27.748 13.738 29.548 12.988 31.462 12.988C33.376 12.988 35.176 13.738 36.526 15.094C37.876 16.45 38.626 18.256 38.626 20.182C38.626 21.076 38.464 21.946 38.152 22.762C36.712 21.052 34.564 19.966 32.164 19.966C27.838 19.966 24.316 23.5 24.316 27.844C24.316 30.472 25.606 32.806 27.586 34.24L24.826 37.006ZM32.152 34.684C28.396 34.684 25.348 31.618 25.348 27.85C25.348 24.082 28.402 21.016 32.152 21.016C35.908 21.016 38.956 24.082 38.956 27.85C38.956 31.618 35.908 34.684 32.152 34.684Z" fill="white"/>
<path d="M36.4661 25.942H34.0481V23.518C34.0481 23.23 33.8141 22.996 33.5261 22.996H30.7721C30.4841 22.996 30.2501 23.23 30.2501 23.518V25.942H27.8321C27.5441 25.942 27.3101 26.176 27.3101 26.464V29.23C27.3101 29.518 27.5441 29.752 27.8321 29.752H30.2501V32.176C30.2501 32.464 30.4841 32.698 30.7721 32.698H33.5261C33.8141 32.698 34.0481 32.464 34.0481 32.176V29.752H36.4661C36.7541 29.752 36.9881 29.518 36.9881 29.23V26.464C36.9881 26.176 36.7541 25.942 36.4661 25.942ZM35.9441 28.708H33.5261C33.2381 28.708 33.0041 28.942 33.0041 29.23V31.654H31.3001V29.23C31.3001 28.942 31.0661 28.708 30.7781 28.708H28.3601V26.986H30.7781C31.0661 26.986 31.3001 26.752 31.3001 26.464V24.04H33.0101V26.464C33.0101 26.752 33.2441 26.986 33.5321 26.986H35.9501V28.708H35.9441Z" fill="white"/>
</g>
<defs>
<clipPath id="clip0">
<rect width="30" height="27.5" fill="white" transform="translate(10 11.25)"/>
</clipPath>
</defs>
</svg>
