<svg xmlns="http://www.w3.org/2000/svg" width="28" height="28" fill="none" viewBox="0 0 20 20">
  <g fill="none" fill-rule="evenodd">
    <rect width="20" height="20"/>
    <path  fill="#000" d="M14.1421356,10.1421356 C14.6549715,10.1421356 15.0776428,10.5281758 15.1421356,11.1421356 L15.1421356,11.1421356 L15.1421356,17.1421356 C15.1421356,17.6944204 14.6944204,18.1421356 14.1421356,18.1421356 C13.6292998,18.1421356 13.2066285,17.7560954 13.1421356,17.1421356 L13.1421356,17.1421356 L13.1421356,11.1421356 C13.1421356,10.5898509 13.5898509,10.1421356 14.1421356,10.1421356 Z" transform="rotate(-45 14.142 14.142)"/>
    <path  fill="#000" d="M8.48528137,2.48528137 C5.17157288,2.48528137 2.48528137,5.17157288 2.48528137,8.48528137 C2.48528137,11.7989899 5.17157288,14.4852814 8.48528137,14.4852814 C11.7989899,14.4852814 14.4852814,11.7989899 14.4852814,8.48528137 C14.4852814,5.17157288 11.7989899,2.48528137 8.48528137,2.48528137 Z M8.48528137,4.48528137 C10.6944204,4.48528137 12.4852814,6.27614238 12.4852814,8.48528137 C12.4852814,10.6944204 10.6944204,12.4852814 8.48528137,12.4852814 C6.27614238,12.4852814 4.48528137,10.6944204 4.48528137,8.48528137 C4.48528137,6.27614238 6.27614238,4.48528137 8.48528137,4.48528137 Z" transform="rotate(-45 8.485 8.485)"/>
  </g>
</svg>
