<svg width="24" height="24" viewBox="0 0 24 24" fill="none" xmlns="http://www.w3.org/2000/svg">
<circle cx="5.5" cy="5.20312" r="1.5" stroke="#0253E2" stroke-width="1.5"/>
<circle cx="12" cy="3.70312" r="2" fill="white" stroke="#0253E2" stroke-width="1.5"/>
<circle cx="18.5" cy="5.20312" r="1.5" stroke="#0253E2" stroke-width="1.5"/>
<path fill-rule="evenodd" clip-rule="evenodd" d="M4 8.70312C2.89543 8.70312 2 9.59856 2 10.7031V14.7031C2 14.7758 2.00388 14.8475 2.01143 14.9182C2.00386 15.0122 2 15.1072 2 15.2031C2 17.1361 3.567 18.7031 5.5 18.7031C7.433 18.7031 9 17.1361 9 15.2031C9 15.1072 8.99614 15.0122 8.98857 14.9182C8.99612 14.8475 9 14.7758 9 14.7031V10.7031C9 9.59856 8.10457 8.70312 7 8.70312H4Z" fill="white"/>
<path d="M2.01143 14.9182L2.75901 14.9784L2.76465 14.9084L2.75718 14.8385L2.01143 14.9182ZM8.98857 14.9182L8.24282 14.8385L8.23535 14.9084L8.24099 14.9784L8.98857 14.9182ZM2.75 10.7031C2.75 10.0128 3.30964 9.45312 4 9.45312V7.95312C2.48122 7.95312 1.25 9.18434 1.25 10.7031H2.75ZM2.75 14.7031V10.7031H1.25V14.7031H2.75ZM2.75718 14.8385C2.75245 14.7942 2.75 14.7491 2.75 14.7031H1.25C1.25 14.8025 1.2553 14.9008 1.26568 14.9979L2.75718 14.8385ZM2.75 15.2031C2.75 15.1273 2.75305 15.0524 2.75901 14.9784L1.26385 14.858C1.25467 14.972 1.25 15.0871 1.25 15.2031H2.75ZM5.5 17.9531C3.98122 17.9531 2.75 16.7219 2.75 15.2031H1.25C1.25 17.5503 3.15279 19.4531 5.5 19.4531V17.9531ZM8.25 15.2031C8.25 16.7219 7.01878 17.9531 5.5 17.9531V19.4531C7.84721 19.4531 9.75 17.5503 9.75 15.2031H8.25ZM8.24099 14.9784C8.24695 15.0524 8.25 15.1273 8.25 15.2031H9.75C9.75 15.0871 9.74533 14.972 9.73615 14.858L8.24099 14.9784ZM8.25 14.7031C8.25 14.7491 8.24755 14.7942 8.24282 14.8385L9.73432 14.9979C9.7447 14.9008 9.75 14.8025 9.75 14.7031H8.25ZM8.25 10.7031V14.7031H9.75V10.7031H8.25ZM7 9.45312C7.69036 9.45312 8.25 10.0128 8.25 10.7031H9.75C9.75 9.18434 8.51878 7.95312 7 7.95312V9.45312ZM4 9.45312H7V7.95312H4V9.45312Z" fill="#0253E2"/>
<path fill-rule="evenodd" clip-rule="evenodd" d="M17 8.70312C15.8954 8.70312 15 9.59856 15 10.7031V14.7031C15 14.7758 15.0039 14.8475 15.0114 14.9182C15.0039 15.0122 15 15.1072 15 15.2031C15 17.1361 16.567 18.7031 18.5 18.7031C20.433 18.7031 22 17.1361 22 15.2031C22 15.1072 21.9961 15.0122 21.9886 14.9182C21.9961 14.8475 22 14.7758 22 14.7031V10.7031C22 9.59856 21.1046 8.70312 20 8.70312H17Z" fill="white"/>
<path d="M15.0114 14.9182L15.759 14.9784L15.7647 14.9084L15.7572 14.8385L15.0114 14.9182ZM21.9886 14.9182L21.2428 14.8385L21.2353 14.9084L21.241 14.9784L21.9886 14.9182ZM15.75 10.7031C15.75 10.0128 16.3096 9.45312 17 9.45312V7.95312C15.4812 7.95312 14.25 9.18434 14.25 10.7031H15.75ZM15.75 14.7031V10.7031H14.25V14.7031H15.75ZM15.7572 14.8385C15.7525 14.7942 15.75 14.7491 15.75 14.7031H14.25C14.25 14.8025 14.2553 14.9008 14.2657 14.9979L15.7572 14.8385ZM15.75 15.2031C15.75 15.1273 15.753 15.0524 15.759 14.9784L14.2639 14.858C14.2547 14.972 14.25 15.0871 14.25 15.2031H15.75ZM18.5 17.9531C16.9812 17.9531 15.75 16.7219 15.75 15.2031H14.25C14.25 17.5503 16.1528 19.4531 18.5 19.4531V17.9531ZM21.25 15.2031C21.25 16.7219 20.0188 17.9531 18.5 17.9531V19.4531C20.8472 19.4531 22.75 17.5503 22.75 15.2031H21.25ZM21.241 14.9784C21.247 15.0524 21.25 15.1273 21.25 15.2031H22.75C22.75 15.0871 22.7453 14.972 22.7361 14.858L21.241 14.9784ZM21.25 14.7031C21.25 14.7491 21.2475 14.7942 21.2428 14.8385L22.7343 14.9979C22.7447 14.9008 22.75 14.8025 22.75 14.7031H21.25ZM21.25 10.7031V14.7031H22.75V10.7031H21.25ZM20 9.45312C20.6904 9.45312 21.25 10.0128 21.25 10.7031H22.75C22.75 9.18434 21.5188 7.95312 20 7.95312V9.45312ZM17 9.45312H20V7.95312H17V9.45312Z" fill="#0253E2"/>
<path fill-rule="evenodd" clip-rule="evenodd" d="M9.44434 6.70312C7.78748 6.70312 6.44434 8.04627 6.44434 9.70313V16.4V17.1819C6.44434 17.7999 6.63121 18.3743 6.95154 18.8516C7.8384 20.8846 9.7942 22.297 12.0644 22.297C14.3346 22.297 16.2904 20.8846 17.1772 18.8516C17.4976 18.3743 17.6844 17.7999 17.6844 17.1819V16.4V9.70313C17.6844 8.04627 16.3413 6.70312 14.6844 6.70312H9.44434Z" fill="white"/>
<mask id="path-9-inside-1" fill="white">
<path fill-rule="evenodd" clip-rule="evenodd" d="M10.1289 7.65283C8.47205 7.65283 7.12891 8.99597 7.12891 10.6528V16.1685V16.4898C7.12891 16.8064 7.17795 17.1116 7.26885 17.3981C7.79486 19.6647 9.74236 21.3472 12.0644 21.3472C14.3864 21.3472 16.3339 19.6647 16.8599 17.3981C16.9508 17.1116 16.9999 16.8064 16.9999 16.4898V16.1685V10.6528C16.9999 8.99598 15.6567 7.65283 13.9999 7.65283H10.1289Z"/>
</mask>
<path fill-rule="evenodd" clip-rule="evenodd" d="M10.1289 7.65283C8.47205 7.65283 7.12891 8.99597 7.12891 10.6528V16.1685V16.4898C7.12891 16.8064 7.17795 17.1116 7.26885 17.3981C7.79486 19.6647 9.74236 21.3472 12.0644 21.3472C14.3864 21.3472 16.3339 19.6647 16.8599 17.3981C16.9508 17.1116 16.9999 16.8064 16.9999 16.4898V16.1685V10.6528C16.9999 8.99598 15.6567 7.65283 13.9999 7.65283H10.1289Z" fill="white"/>
<path d="M7.26885 17.3981L8.73002 17.059L8.71659 17.0011L8.69861 16.9444L7.26885 17.3981ZM16.8599 17.3981L15.4302 16.9445L15.4122 17.0011L15.3988 17.059L16.8599 17.3981ZM8.62891 10.6528C8.62891 9.8244 9.30048 9.15283 10.1289 9.15283V6.15283C7.64363 6.15283 5.62891 8.16755 5.62891 10.6528H8.62891ZM8.62891 16.1685V10.6528H5.62891V16.1685H8.62891ZM8.62891 16.4898V16.1685H5.62891V16.4898H8.62891ZM8.69861 16.9444C8.65371 16.8029 8.62891 16.6507 8.62891 16.4898H5.62891C5.62891 16.9622 5.70219 17.4202 5.83909 17.8517L8.69861 16.9444ZM12.0644 19.8472C10.5016 19.8472 9.11262 18.7076 8.73002 17.059L5.80769 17.7372C6.4771 20.6217 8.98309 22.8472 12.0644 22.8472V19.8472ZM15.3988 17.059C15.0162 18.7076 13.6272 19.8472 12.0644 19.8472V22.8472C15.1457 22.8472 17.6517 20.6217 18.3211 17.7372L15.3988 17.059ZM15.4999 16.4898C15.4999 16.6507 15.4751 16.8029 15.4302 16.9445L18.2897 17.8517C18.4266 17.4202 18.4999 16.9622 18.4999 16.4898H15.4999ZM15.4999 16.1685V16.4898H18.4999V16.1685H15.4999ZM15.4999 10.6528V16.1685H18.4999V10.6528H15.4999ZM13.9999 9.15283C14.8283 9.15283 15.4999 9.82441 15.4999 10.6528H18.4999C18.4999 8.16755 16.4852 6.15283 13.9999 6.15283V9.15283ZM10.1289 9.15283H13.9999V6.15283H10.1289V9.15283Z" fill="#0253E2" mask="url(#path-9-inside-1)"/>
</svg>
