<svg width="60" height="60" viewBox="0 0 60 60" fill="none" xmlns="http://www.w3.org/2000/svg">
<path d="M36.8845 25C39.2995 25 41.2595 26.96 41.2595 29.375V41.2475C41.2595 44.2318 40.074 47.094 37.9637 49.2042C35.8535 51.3145 32.9914 52.5 30.007 52.5C27.0227 52.5 24.1605 51.3145 22.0503 49.2042C19.94 47.094 18.7545 44.2318 18.7545 41.2475V29.375C18.7545 26.96 20.712 25 23.1295 25H36.8845ZM36.8845 28.75H23.1295C22.9638 28.75 22.8048 28.8158 22.6876 28.9331C22.5704 29.0503 22.5045 29.2092 22.5045 29.375V41.2475C22.5045 43.2373 23.295 45.1456 24.7019 46.5526C26.1089 47.9596 28.0172 48.75 30.007 48.75C31.9968 48.75 33.9051 47.9596 35.3121 46.5526C36.7191 45.1456 37.5095 43.2373 37.5095 41.2475V29.375C37.5095 29.2092 37.4437 29.0503 37.3265 28.9331C37.2092 28.8158 37.0503 28.75 36.8845 28.75ZM9.37451 25H17.827C16.945 26.0652 16.4064 27.3726 16.282 28.75H9.37451C9.20875 28.75 9.04978 28.8158 8.93257 28.9331C8.81536 29.0503 8.74951 29.2092 8.74951 29.375V37.4975C8.74935 38.4422 8.96327 39.3747 9.37519 40.2248C9.78712 41.075 10.3863 41.8208 11.1278 42.4062C11.8693 42.9915 12.7339 43.4012 13.6564 43.6045C14.579 43.8079 15.5356 43.7995 16.4545 43.58C16.667 44.84 17.0545 46.0425 17.587 47.16C16.1052 47.5564 14.5521 47.6067 13.0477 47.307C11.5434 47.0073 10.1281 46.3657 8.91138 45.4317C7.69463 44.4977 6.70898 43.2963 6.03067 41.9205C5.35236 40.5448 4.99954 39.0314 4.99951 37.4975V29.375C4.99951 26.96 6.95951 25 9.37451 25ZM42.187 25H50.6245C53.0395 25 54.9995 26.96 54.9995 29.375V37.5C54.9999 39.0329 54.6478 40.5454 53.9705 41.9206C53.2932 43.2957 52.3088 44.4968 51.0934 45.4309C49.878 46.3651 48.4641 47.0073 46.961 47.308C45.4579 47.6086 43.9057 47.5597 42.4245 47.165C42.9595 46.045 43.347 44.8425 43.562 43.5825C44.4797 43.7994 45.4346 43.8058 46.3552 43.6013C47.2757 43.3967 48.138 42.9865 48.8776 42.4014C49.6171 41.8163 50.2146 41.0714 50.6254 40.2226C51.0361 39.3738 51.2495 38.443 51.2495 37.5V29.375C51.2495 29.2092 51.1837 29.0503 51.0665 28.9331C50.9492 28.8158 50.7903 28.75 50.6245 28.75H43.732C43.6077 27.3726 43.069 26.0652 42.187 25ZM29.9995 7.5C31.9886 7.5 33.8963 8.29018 35.3028 9.6967C36.7093 11.1032 37.4995 13.0109 37.4995 15C37.4995 16.9891 36.7093 18.8968 35.3028 20.3033C33.8963 21.7098 31.9886 22.5 29.9995 22.5C28.0104 22.5 26.1027 21.7098 24.6962 20.3033C23.2897 18.8968 22.4995 16.9891 22.4995 15C22.4995 13.0109 23.2897 11.1032 24.6962 9.6967C26.1027 8.29018 28.0104 7.5 29.9995 7.5ZM46.2495 10C47.9071 10 49.4968 10.6585 50.6689 11.8306C51.841 13.0027 52.4995 14.5924 52.4995 16.25C52.4995 17.9076 51.841 19.4973 50.6689 20.6694C49.4968 21.8415 47.9071 22.5 46.2495 22.5C44.5919 22.5 43.0022 21.8415 41.8301 20.6694C40.658 19.4973 39.9995 17.9076 39.9995 16.25C39.9995 14.5924 40.658 13.0027 41.8301 11.8306C43.0022 10.6585 44.5919 10 46.2495 10ZM13.7495 10C15.4071 10 16.9968 10.6585 18.1689 11.8306C19.341 13.0027 19.9995 14.5924 19.9995 16.25C19.9995 17.9076 19.341 19.4973 18.1689 20.6694C16.9968 21.8415 15.4071 22.5 13.7495 22.5C12.0919 22.5 10.5022 21.8415 9.33009 20.6694C8.15799 19.4973 7.49951 17.9076 7.49951 16.25C7.49951 14.5924 8.15799 13.0027 9.33009 11.8306C10.5022 10.6585 12.0919 10 13.7495 10ZM29.9995 11.25C29.005 11.25 28.0511 11.6451 27.3479 12.3483C26.6446 13.0516 26.2495 14.0054 26.2495 15C26.2495 15.9946 26.6446 16.9484 27.3479 17.6517C28.0511 18.3549 29.005 18.75 29.9995 18.75C30.9941 18.75 31.9479 18.3549 32.6512 17.6517C33.3544 16.9484 33.7495 15.9946 33.7495 15C33.7495 14.0054 33.3544 13.0516 32.6512 12.3483C31.9479 11.6451 30.9941 11.25 29.9995 11.25ZM46.2495 13.75C45.5865 13.75 44.9506 14.0134 44.4817 14.4822C44.0129 14.9511 43.7495 15.587 43.7495 16.25C43.7495 16.913 44.0129 17.5489 44.4817 18.0178C44.9506 18.4866 45.5865 18.75 46.2495 18.75C46.9126 18.75 47.5484 18.4866 48.0173 18.0178C48.4861 17.5489 48.7495 16.913 48.7495 16.25C48.7495 15.587 48.4861 14.9511 48.0173 14.4822C47.5484 14.0134 46.9126 13.75 46.2495 13.75ZM13.7495 13.75C13.0865 13.75 12.4506 14.0134 11.9817 14.4822C11.5129 14.9511 11.2495 15.587 11.2495 16.25C11.2495 16.913 11.5129 17.5489 11.9817 18.0178C12.4506 18.4866 13.0865 18.75 13.7495 18.75C14.4126 18.75 15.0484 18.4866 15.5173 18.0178C15.9861 17.5489 16.2495 16.913 16.2495 16.25C16.2495 15.587 15.9861 14.9511 15.5173 14.4822C15.0484 14.0134 14.4126 13.75 13.7495 13.75Z" fill="white"/>
</svg>
