<svg width="60" height="60" viewBox="0 0 60 60" fill="none" xmlns="http://www.w3.org/2000/svg">
<circle cx="30" cy="30" r="30" fill="#8359FF"/>
<g clip-path="url(#clip0)">
<path d="M29.8708 18.5394C32.01 18.5394 33.7213 20.2248 33.7213 22.3316C33.7213 24.4383 32.01 26.1237 29.8708 26.1237C27.7744 26.1237 26.0631 24.4383 26.0631 22.3316C26.0631 20.267 27.7744 18.5394 29.8708 18.5394Z" fill="white"/>
<path d="M30.984 42.0508V42.3879C30.984 42.9778 30.5134 43.4412 29.9144 43.4412H29.5721C28.9732 43.4412 28.5026 42.9778 28.5026 42.3879V42.0508C28.5026 41.4609 28.9732 40.9974 29.5721 40.9974H29.9144C30.5134 40.9974 30.984 41.4609 30.984 42.0508Z" fill="white"/>
<path d="M22.6408 35.7727C23.4109 30.4637 27.133 27.2614 29.9139 27.2614C32.6948 27.2614 36.4169 30.4215 37.187 35.7727H37.8715H38.5133V14.7052C38.5133 14.1154 38.0427 13.6519 37.4437 13.6519H22.0846C21.4856 13.6519 21.015 14.1154 21.015 14.7052V35.7727H21.6995H22.6408ZM40.6524 38.2586V45.1266C40.6524 46.8541 39.1978 48.2867 37.4437 48.2867H22.0846C20.3305 48.2867 18.8759 46.8541 18.8759 45.1266V38.2586V35.8148V14.7474C18.8759 13.0198 20.3305 11.5873 22.0846 11.5873H37.4437C39.1978 11.5873 40.6524 13.0198 40.6524 14.7474V35.8148V38.2586ZM32.267 42.3878V42.0507C32.267 40.7867 31.1974 39.7333 29.9139 39.7333H29.5716C28.2881 39.7333 27.2186 40.7867 27.2186 42.0507V42.3878C27.2186 43.6519 28.2881 44.7052 29.5716 44.7052H29.9139C31.2402 44.7052 32.267 43.6519 32.267 42.3878Z" fill="white"/>
</g>
<defs>
<clipPath id="clip0">
<rect width="22.2472" height="37.0787" fill="white" transform="translate(18.8765 11.4607)"/>
</clipPath>
</defs>
</svg>
