<svg width="50" height="50" viewBox="0 0 50 50" fill="none" xmlns="http://www.w3.org/2000/svg">
<rect width="50" height="50" rx="25" fill="#8359FF"/>
<path d="M25.1372 39.338C17.2485 39.338 10.8386 32.9169 10.8386 25.0394C10.8386 17.162 17.2485 10.7412 25.1372 10.7412C33.0146 10.7412 39.4357 17.1508 39.4357 25.0397C39.4357 32.9287 33.0146 39.338 25.1372 39.338ZM25.1372 11.8993C17.8905 11.8993 11.997 17.793 11.997 25.0394C11.997 32.2858 17.8908 38.1796 25.1372 38.1796C32.3836 38.1796 38.2773 32.2858 38.2773 25.0394C38.2773 17.793 32.3724 11.8993 25.1372 11.8993Z" fill="white"/>
<path d="M25.1025 27.0234L19.0942 21.0036C18.8648 20.7741 18.8648 20.4074 19.0942 20.1895C19.3236 19.96 19.6904 19.96 19.9083 20.1895L25.1025 25.3837L30.251 20.2352C30.4804 20.0058 30.8472 20.0058 31.0651 20.2352C31.2945 20.4647 31.2945 20.8314 31.0651 21.0493L25.1025 27.0234Z" fill="white"/>
<path d="M24.9997 39.1889C24.6787 39.1889 24.415 38.9252 24.415 38.6042V26.106C24.415 25.785 24.6787 25.5213 24.9997 25.5213C25.3206 25.5213 25.5843 25.785 25.5843 26.106V38.6158C25.5843 38.9252 25.3206 39.1889 24.9997 39.1889Z" fill="white"/>
</svg>
